<svg class="icon" width="200" height="200" viewBox="0 0 1024 1024" xmlns="http://www.w3.org/2000/svg"><path d="M709.254 957.196c-15.286 0-29.522-5.88-40.167-16.565L279.39 550.241c-1.426-1.393-2.538-2.578-3.45-3.847l-2.304-2.905c-11.363-11.416-16.946-24.849-16.946-39.069 0-14.475 5.708-28.01 16.056-38.11L665.123 78.092c10.613-10.468 24.785-16.237 39.893-16.237 14.772 0 28.726 5.6 39.287 15.754 10.497 10.186 16.539 24.39 16.539 38.952 0 14.382-5.722 28.01-16.143 38.367l-353.966 350.17 358.484 359.428c10.25 10.31 15.91 23.782 15.91 37.994 0 14.89-6.051 28.86-17 39.334-10.419 9.89-24.249 15.34-38.873 15.34z"/></svg>