<svg class="icon" width="200" height="200" viewBox="0 0 1024 1024" xmlns="http://www.w3.org/2000/svg"><path d="M312.563 61.856c15.286 0 29.523 5.879 40.167 16.564l389.697 390.391c1.425 1.393 2.537 2.578 3.45 3.847l2.304 2.905c11.362 11.416 16.946 24.85 16.946 39.069 0 14.476-5.708 28.01-16.057 38.11L356.692 940.96c-10.612 10.467-24.785 16.237-39.892 16.237-14.773 0-28.727-5.6-39.288-15.754-10.497-10.186-16.539-24.39-16.539-38.952 0-14.383 5.723-28.01 16.143-38.367l353.969-350.17-358.486-359.429c-10.25-10.31-15.91-23.781-15.91-37.994 0-14.89 6.053-28.86 17-39.334 10.42-9.89 24.25-15.34 38.874-15.34z"/></svg>